<svg width="17" height="17" viewBox="0 0 17 17" fill="none" xmlns="http://www.w3.org/2000/svg">
<path d="M7.45081 1.61555C7.45081 1.11972 7.85275 0.717773 8.34858 0.717773C8.84441 0.717773 9.24636 1.11972 9.24636 1.61555V15.98C9.24636 16.4758 8.84441 16.8778 8.34858 16.8778C7.85275 16.8778 7.45081 16.4758 7.45081 15.98V1.61555Z" fill="white"/>
<path d="M1.16633 9.69531C0.670502 9.69531 0.268555 9.29336 0.268555 8.79753C0.268555 8.30171 0.670503 7.89976 1.16633 7.89976L15.5308 7.89976C16.0266 7.89976 16.4286 8.30171 16.4286 8.79753C16.4286 9.29336 16.0266 9.69531 15.5308 9.69531L1.16633 9.69531Z" fill="white"/>
</svg>
