<svg width="16" height="16" viewBox="0 0 16 16" fill="none" xmlns="http://www.w3.org/2000/svg">
<path d="M2.39999 16C1.95999 16 1.58332 15.8433 1.26999 15.53C0.956654 15.2167 0.799988 14.84 0.799988 14.4V3.2C0.799988 2.76 0.956654 2.38333 1.26999 2.07C1.58332 1.75667 1.95999 1.6 2.39999 1.6H3.19999V0H4.79999V1.6H11.2V0H12.8V1.6H13.6C14.04 1.6 14.4167 1.75667 14.73 2.07C15.0433 2.38333 15.2 2.76 15.2 3.2V14.4C15.2 14.84 15.0433 15.2167 14.73 15.53C14.4167 15.8433 14.04 16 13.6 16H2.39999ZM2.39999 14.4H13.6V6.4H2.39999V14.4ZM2.39999 4.8H13.6V3.2H2.39999V4.8ZM7.99999 9.6C7.77332 9.6 7.58332 9.52333 7.42999 9.37C7.27665 9.21667 7.19999 9.02667 7.19999 8.8C7.19999 8.57333 7.27665 8.38333 7.42999 8.23C7.58332 8.07667 7.77332 8 7.99999 8C8.22665 8 8.41665 8.07667 8.56999 8.23C8.72332 8.38333 8.79999 8.57333 8.79999 8.8C8.79999 9.02667 8.72332 9.21667 8.56999 9.37C8.41665 9.52333 8.22665 9.6 7.99999 9.6ZM4.79999 9.6C4.57332 9.6 4.38332 9.52333 4.22999 9.37C4.07665 9.21667 3.99999 9.02667 3.99999 8.8C3.99999 8.57333 4.07665 8.38333 4.22999 8.23C4.38332 8.07667 4.57332 8 4.79999 8C5.02665 8 5.21665 8.07667 5.36999 8.23C5.52332 8.38333 5.59999 8.57333 5.59999 8.8C5.59999 9.02667 5.52332 9.21667 5.36999 9.37C5.21665 9.52333 5.02665 9.6 4.79999 9.6ZM11.2 9.6C10.9733 9.6 10.7833 9.52333 10.63 9.37C10.4767 9.21667 10.4 9.02667 10.4 8.8C10.4 8.57333 10.4767 8.38333 10.63 8.23C10.7833 8.07667 10.9733 8 11.2 8C11.4267 8 11.6167 8.07667 11.77 8.23C11.9233 8.38333 12 8.57333 12 8.8C12 9.02667 11.9233 9.21667 11.77 9.37C11.6167 9.52333 11.4267 9.6 11.2 9.6ZM7.99999 12.8C7.77332 12.8 7.58332 12.7233 7.42999 12.57C7.27665 12.4167 7.19999 12.2267 7.19999 12C7.19999 11.7733 7.27665 11.5833 7.42999 11.43C7.58332 11.2767 7.77332 11.2 7.99999 11.2C8.22665 11.2 8.41665 11.2767 8.56999 11.43C8.72332 11.5833 8.79999 11.7733 8.79999 12C8.79999 12.2267 8.72332 12.4167 8.56999 12.57C8.41665 12.7233 8.22665 12.8 7.99999 12.8ZM4.79999 12.8C4.57332 12.8 4.38332 12.7233 4.22999 12.57C4.07665 12.4167 3.99999 12.2267 3.99999 12C3.99999 11.7733 4.07665 11.5833 4.22999 11.43C4.38332 11.2767 4.57332 11.2 4.79999 11.2C5.02665 11.2 5.21665 11.2767 5.36999 11.43C5.52332 11.5833 5.59999 11.7733 5.59999 12C5.59999 12.2267 5.52332 12.4167 5.36999 12.57C5.21665 12.7233 5.02665 12.8 4.79999 12.8ZM11.2 12.8C10.9733 12.8 10.7833 12.7233 10.63 12.57C10.4767 12.4167 10.4 12.2267 10.4 12C10.4 11.7733 10.4767 11.5833 10.63 11.43C10.7833 11.2767 10.9733 11.2 11.2 11.2C11.4267 11.2 11.6167 11.2767 11.77 11.43C11.9233 11.5833 12 11.7733 12 12C12 12.2267 11.9233 12.4167 11.77 12.57C11.6167 12.7233 11.4267 12.8 11.2 12.8Z" fill="white"/>
</svg>
