<svg width="10" height="11" viewBox="0 0 10 11" fill="none" xmlns="http://www.w3.org/2000/svg">
<path d="M5.0262 5.74129C4.36205 5.74129 3.7935 5.50481 3.32055 5.03186C2.8476 4.5589 2.61112 3.99036 2.61112 3.32621C2.61112 2.66206 2.8476 2.09351 3.32055 1.62056C3.7935 1.14761 4.36205 0.911133 5.0262 0.911133C5.69034 0.911133 6.25889 1.14761 6.73184 1.62056C7.2048 2.09351 7.44127 2.66206 7.44127 3.32621C7.44127 3.99036 7.2048 4.5589 6.73184 5.03186C6.25889 5.50481 5.69034 5.74129 5.0262 5.74129ZM0.196045 10.5714V8.88088C0.196045 8.53875 0.284095 8.22429 0.460194 7.9375C0.636293 7.6507 0.870254 7.43184 1.16208 7.2809C1.78597 6.96895 2.41993 6.73499 3.06395 6.57901C3.70797 6.42304 4.36205 6.34505 5.0262 6.34505C5.69034 6.34505 6.34443 6.42304 6.98845 6.57901C7.63247 6.73499 8.26643 6.96895 8.89032 7.2809C9.18214 7.43184 9.4161 7.6507 9.5922 7.9375C9.7683 8.22429 9.85635 8.53875 9.85635 8.88088V10.5714H0.196045ZM1.40358 9.3639H8.64881V8.88088C8.64881 8.77019 8.62114 8.66957 8.56579 8.579C8.51045 8.48843 8.43749 8.41799 8.34693 8.36768C7.80353 8.09598 7.25511 7.89221 6.70166 7.75636C6.1482 7.62052 5.58972 7.55259 5.0262 7.55259C4.46268 7.55259 3.90419 7.62052 3.35074 7.75636C2.79728 7.89221 2.24886 8.09598 1.70547 8.36768C1.6149 8.41799 1.54195 8.48843 1.4866 8.579C1.43126 8.66957 1.40358 8.77019 1.40358 8.88088V9.3639ZM5.0262 4.53375C5.35827 4.53375 5.64255 4.41551 5.87902 4.17903C6.1155 3.94256 6.23374 3.65828 6.23374 3.32621C6.23374 2.99414 6.1155 2.70986 5.87902 2.47339C5.64255 2.23691 5.35827 2.11867 5.0262 2.11867C4.69412 2.11867 4.40985 2.23691 4.17337 2.47339C3.9369 2.70986 3.81866 2.99414 3.81866 3.32621C3.81866 3.65828 3.9369 3.94256 4.17337 4.17903C4.40985 4.41551 4.69412 4.53375 5.0262 4.53375Z" fill="black"/>
</svg>
