<svg width="17" height="17" viewBox="0 0 17 17" fill="none" xmlns="http://www.w3.org/2000/svg">
<path d="M15.2828 16.8778L9.62675 11.2218C9.17786 11.5809 8.66164 11.8652 8.07809 12.0747C7.49453 12.2841 6.87357 12.3889 6.2152 12.3889C4.58423 12.3889 3.2039 11.824 2.07419 10.6943C0.944491 9.56463 0.379639 8.18429 0.379639 6.55333C0.379639 4.92237 0.944491 3.54203 2.07419 2.41233C3.2039 1.28263 4.58423 0.717773 6.2152 0.717773C7.84616 0.717773 9.22649 1.28263 10.3562 2.41233C11.4859 3.54203 12.0508 4.92237 12.0508 6.55333C12.0508 7.2117 11.946 7.83266 11.7365 8.41622C11.5271 8.99978 11.2428 9.516 10.8836 9.96489L16.5396 15.6209L15.2828 16.8778ZM6.2152 10.5933C7.33742 10.5933 8.29131 10.2006 9.07686 9.415C9.86242 8.62944 10.2552 7.67555 10.2552 6.55333C10.2552 5.43111 9.86242 4.47722 9.07686 3.69166C8.29131 2.90611 7.33742 2.51333 6.2152 2.51333C5.09297 2.51333 4.13908 2.90611 3.35353 3.69166C2.56797 4.47722 2.17519 5.43111 2.17519 6.55333C2.17519 7.67555 2.56797 8.62944 3.35353 9.415C4.13908 10.2006 5.09297 10.5933 6.2152 10.5933Z" fill="white"/>
</svg>
