<svg width="12" height="10" viewBox="0 0 12 10" fill="none" xmlns="http://www.w3.org/2000/svg">
<path d="M1.2 10C0.87 10 0.5875 9.8776 0.3525 9.63281C0.1175 9.38802 0 9.09375 0 8.75V1.25C0 0.90625 0.1175 0.611979 0.3525 0.367188C0.5875 0.122396 0.87 0 1.2 0H8.4C8.73 0 9.0125 0.122396 9.2475 0.367188C9.4825 0.611979 9.6 0.90625 9.6 1.25V4.0625L12 1.5625V8.4375L9.6 5.9375V8.75C9.6 9.09375 9.4825 9.38802 9.2475 9.63281C9.0125 9.8776 8.73 10 8.4 10H1.2ZM1.2 8.75H8.4V1.25H1.2V8.75Z" fill="white"/>
</svg>
